#!OML:ASF F:\VICON\USERDATA\INSTALL\rory3\rory3.ASF
:FULLY-SPECIFIED
:DEGREES
218
root 0.054069232722564864 17.63036873092581 54.078863919877094 -1.7625959741485575 -4.653415314172622 -4.137561629745109
lfemur -19.606683968309028 0.011778089839658445 -19.109501714195893
ltibia 25.50998512045586
lfoot 1.4026627203491824 0.48148787771979196
ltoes -2.184196383215075
rfemur -13.476255967162102 3.9746306364405504 26.08995292357245
rtibia 39.83378803076635
rfoot -3.9774118739278403 -9.81979842261123
rtoes 5.831588754774727
lowerback 10.545969738842663 1.087305970636739 3.6143280880872215
upperback 0.32055830757599546 2.1356414409136417 1.3962426222592816
thorax -6.001183737144928 0.9170394441094227 -1.5281115015789029
lowerneck -16.22519768651851 -2.7465666715684742 -3.181030072215293
upperneck 21.89158353244552 -3.242892166305973 0.8848852830214393
head 9.467665295475555 -1.643905999614213 0.7522550406900502
lclavicle 1.4473691322350812e-16 2.3525649394914955e-16
lhumerus -32.563780311924646 4.494185575190064 79.27312760018897
lradius 27.283606874612964
lwrist 4.122466719747538
lhand -29.004165216442868 20.47669898192583
lfingers 7.12502
lthumb -2.594457438415649 50.103525689482964
rclavicle 1.4642239910787216e-16 2.365769853931923e-16
rhumerus -26.122135334973986 -19.14690862308805 -75.84802242371158
rradius 18.275772358640406
rwrist 11.017158577109441
rhand -18.57409675124366 23.33807225086024
rfingers 7.12502
rthumb 7.925894792260314 -7.483885287542541
219
root 0.0594257787083608 17.636435713551435 54.2192043234088 -2.0274728328458194 -4.621443736430424 -3.910839767629601
lfemur -19.69028150513155 0.04432964164403219 -19.388021751019625
ltibia 24.86280384254605
lfoot 1.0542459446682226 1.1022778639430713
ltoes -2.125121012747179
rfemur -14.01682557536639 3.5172975020958788 25.84727191624507
rtibia 39.82869926183189
rfoot -4.566393565414785 -10.05822274057098
rtoes 5.275745971532261
lowerback 10.776930076252668 1.0575669742808849 3.3581803670004975
upperback 0.35544861848027876 2.029410640184305 1.3866097758877036
thorax -6.039527031705012 0.8693692252380439 -1.3884383764235717
lowerneck -16.222594633857653 -2.7606312447737724 -3.198990118302259
upperneck 21.91166325825433 -3.267469772880551 0.9467857957114959
head 9.478812975536535 -1.6500400276540752 0.7654876545691998
lclavicle 1.4450395352995557e-16 2.350766635704767e-16
lhumerus -33.00381193576136 4.812479432894024 79.18918225549669
lradius 27.189628830103867
lwrist 3.96465294456958
lhand -29.05396170298583 20.62775405875699
lfingers 7.12502
lthumb -2.6323015971159744 50.242512337546934
rclavicle 1.4673212675147134e-16 2.3681515851274437e-16
rhumerus -26.254352496773976 -19.501367613343508 -75.67686005498416
rradius 18.302766394020956
rwrist 10.547641124109983
rhand -18.572143098380458 23.331168381836243
rfingers 7.12502
rthumb 7.965010287296782 -7.486940334301739
220
root 0.06458310744729262 17.67312750267447 54.286815109703376 -2.2284109243807575 -4.618271398431095 -3.5081039735203223
lfemur -19.615670659484728 0.05583832507834541 -19.890019560054654
ltibia 24.133948528112192
lfoot 1.8010314817891162 1.1949103536234618
ltoes -2.3133892007905086
rfemur -14.542623425367319 3.1558369222274556 25.46620586530803
rtibia 39.48821508332667
rfoot -4.894061466395751 -10.106189037925255
rtoes 4.787885286339719
lowerback 10.917697066771595 1.0559772952235844 2.9214444009474603
upperback 0.40332649003972953 1.92469691626882 1.3525266960106486
thorax -6.019464783479714 0.8325668617059326 -1.187002001442382
lowerneck -16.228110027976452 -2.771939914032541 -3.2232783997418366
upperneck 21.91541183942611 -3.283926275087421 1.0052166467034451
head 9.478490930817227 -1.6544205769634925 0.786070112803052
lclavicle 1.4507092153067537e-16 2.355109407408326e-16
lhumerus -33.4506275167884 5.154666690836292 79.12348566995598
lradius 26.90501390942412
lwrist 4.154071447932941
lhand -29.041029203472274 20.763996264809517
lfingers 7.12502
lthumb -2.5602664567171214 50.45049067302501
rclavicle 1.4641045679250474e-16 2.365678074154818e-16
rhumerus -26.350896702030163 -19.78916544217565 -75.48447034775678
rradius 18.307897773102905
rwrist 10.403835796139289
rhand -18.534471131742038 23.33858355415455
rfingers 7.12502
rthumb 7.9997099550907365 -7.434489382328698
221
root 0.06164218352144318 17.68792753643459 54.6628665000661 -2.393409777815378 -4.599211216165002 -3.118284279479566
lfemur -19.195310622805867 0.14746418073571332 -20.433294711935403
ltibia 23.823119425580906
lfoot 2.2352597750424374 0.5202536710361398
ltoes -1.9287341842730124
rfemur -15.147195102917607 2.7536998976234806 25.09082300551459
rtibia 39.33123674409515
rfoot -5.4312452359093655 -9.848982297265252
rtoes 5.00461411245993
lowerback 11.103039815893318 0.9962646978671432 2.5649279983244595
upperback 0.476122490262454 1.7743039490591868 1.3000968537018318
thorax -5.976806421596226 0.7610396909341937 -0.9709439026154394
lowerneck -16.22608511069334 -2.7804688482996456 -3.2558048304192937
upperneck 21.891499403640367 -3.2998734881071745 1.0735880601748296
head 9.469850047422142 -1.659655317732105 0.8099330120222747
lclavicle 1.4446110668618876e-16 2.3503959719929287e-16
lhumerus -33.776746785492605 5.419948528113877 79.06750935167074
lradius 26.497650170530726
lwrist 4.2073988899187915
lhand -28.785937216688883 20.650412419439718
lfingers 7.12502
lthumb -2.31996379041891 50.467289301739385
rclavicle 1.4641863597318054e-16 2.365741061449415e-16
rhumerus -26.427007858963396 -20.111369172325805 -75.30977816625267
rradius 18.34265297639089
rwrist 10.193296373021804
rhand -18.41803711295205 23.44215471530843
rfingers 7.12502
rthumb 8.084648519733856 -7.212403034428518
222
root 0.05142851462402448 17.712794149411202 54.84339766605037 -2.49896075494009 -4.3489895861458585 -2.9286705715331016
lfemur -18.659374996064194 0.04791381985872345 -20.861654362216534
ltibia 23.271235347664607
lfoot 2.972289662630854 0.07453980715802366
ltoes -1.883692090874393
rfemur -15.73006676853573 2.455649020626676 24.80438443564276
rtibia 38.817191486163736
rfoot -6.06054453514046 -9.639517789214318
rtoes 5.010233763467484
lowerback 11.213907301393803 0.8524814089120882 2.395552549267096
upperback 0.5416243420707407 1.5247767628912308 1.2695228222149573
thorax -5.868861165377953 0.6401200936670981 -0.7797435807392221
lowerneck -16.230673905199247 -2.782889571121008 -3.2865903847332625
upperneck 21.90400418321556 -3.3116142677475184 1.14498862131639
head 9.471241366941127 -1.6629150511917081 0.8333159079178524
lclavicle 1.4478953449046904e-16 2.35292844982866e-16
lhumerus -34.00902806678546 5.5261191257095525 79.03345929475948
lradius 26.134928317372932
lwrist 4.443385701638595
lhand -28.70009310242622 20.56591533665602
lfingers 7.12502
lthumb -2.257006680094083 50.433506488495354
rclavicle 1.4688250667992557e-16 2.3693079023770873e-16
rhumerus -26.339306661924788 -20.037860690453698 -75.35113589968232
rradius 18.45380237561062
rwrist 9.642912534404644
rhand -18.302351678431606 23.514735611360038
rfingers 7.12502
rthumb 8.185835285410217 -6.962527715165002
